<?xml version="1.0" encoding="UTF-8" standalone="no"?>
<!DOCTYPE svg PUBLIC "-//W3C//DTD SVG 1.1//EN"
 "http://www.w3.org/Graphics/SVG/1.1/DTD/svg11.dtd">
<!-- Generated by graphviz version 2.40.1 (20161225.0304)
 -->
<!-- Title: dependencies Pages: 1 -->
<svg width="1402pt" height="284pt"
 viewBox="0.00 0.00 1402.00 284.00" xmlns="http://www.w3.org/2000/svg" xmlns:xlink="http://www.w3.org/1999/xlink">
<g id="graph0" class="graph" transform="scale(1 1) rotate(0) translate(4 280)">
<title>dependencies</title>
<polygon fill="#ffffff" stroke="transparent" points="-4,4 -4,-280 1398,-280 1398,4 -4,4"/>
<text text-anchor="start" x="676.0091" y="-42.4" font-family="sans-serif" font-weight="bold" font-size="14.00" fill="#000000">Legend</text>
<polygon fill="#ffffb3" stroke="transparent" points="463,-10 463,-30 483,-30 483,-10 463,-10"/>
<text text-anchor="start" x="486.629" y="-15.4" font-family="sans-serif" font-size="14.00" fill="#000000"> &#160;Declarations</text>
<polygon fill="#8dd3c7" stroke="transparent" points="576,-10 576,-30 596,-30 596,-10 576,-10"/>
<text text-anchor="start" x="599.7251" y="-15.4" font-family="sans-serif" font-size="14.00" fill="#000000"> &#160;Module</text>
<polygon fill="#80b1d3" stroke="transparent" points="662,-10 662,-30 682,-30 682,-10 662,-10"/>
<text text-anchor="start" x="685.7812" y="-15.4" font-family="sans-serif" font-size="14.00" fill="#000000"> &#160;Bootstrap</text>
<polygon fill="#fdb462" stroke="transparent" points="759,-10 759,-30 779,-30 779,-10 759,-10"/>
<text text-anchor="start" x="782.6732" y="-15.4" font-family="sans-serif" font-size="14.00" fill="#000000"> &#160;Providers</text>
<polygon fill="#fb8072" stroke="transparent" points="855,-10 855,-30 875,-30 875,-10 855,-10"/>
<text text-anchor="start" x="878.7258" y="-15.4" font-family="sans-serif" font-size="14.00" fill="#000000"> &#160;Exports</text>
<g id="clust1" class="cluster">
<title>cluster_AppModule</title>
<polygon fill="none" stroke="#000000" stroke-dasharray="1,5" points="8,-70 8,-268 1386,-268 1386,-70 8,-70"/>
</g>
<g id="clust2" class="cluster">
<title>cluster_AppModule_declarations</title>
<polygon fill="none" stroke="#000000" points="476,-78 476,-130 1378,-130 1378,-78 476,-78"/>
</g>
<g id="clust9" class="cluster">
<title>cluster_AppModule_imports</title>
<polygon fill="none" stroke="#000000" points="324,-78 324,-130 468,-130 468,-78 324,-78"/>
</g>
<g id="clust11" class="cluster">
<title>cluster_AppModule_bootstrap</title>
<polygon fill="none" stroke="#000000" points="656,-208 656,-260 780,-260 780,-208 656,-208"/>
</g>
<g id="clust12" class="cluster">
<title>cluster_AppModule_providers</title>
<polygon fill="none" stroke="#000000" points="16,-78 16,-130 316,-130 316,-78 16,-78"/>
</g>
<!-- AppComponent -->
<g id="node1" class="node">
<title>AppComponent</title>
<polygon fill="#ffffb3" stroke="#000000" points="1369.9399,-122 1264.0601,-122 1264.0601,-86 1369.9399,-86 1369.9399,-122"/>
<text text-anchor="middle" x="1317" y="-99.8" font-family="Times,serif" font-size="14.00" fill="#000000">AppComponent</text>
</g>
<!-- AppModule -->
<g id="node7" class="node">
<title>AppModule</title>
<polygon fill="#8dd3c7" stroke="#000000" points="759.6571,-187 756.6571,-191 735.6571,-191 732.6571,-187 676.3429,-187 676.3429,-151 759.6571,-151 759.6571,-187"/>
<text text-anchor="middle" x="718" y="-164.8" font-family="Times,serif" font-size="14.00" fill="#000000">AppModule</text>
</g>
<!-- AppComponent&#45;&gt;AppModule -->
<g id="edge1" class="edge">
<title>AppComponent&#45;&gt;AppModule</title>
<path fill="none" stroke="#000000" d="M1317,-122.0109C1317,-144.4852 1317,-180 1317,-180 1317,-180 770.1205,-180 770.1205,-180"/>
<polygon fill="#000000" stroke="#000000" points="770.1206,-176.5001 760.1205,-180 770.1205,-183.5001 770.1206,-176.5001"/>
</g>
<!-- DashboardComponent -->
<g id="node2" class="node">
<title>DashboardComponent</title>
<polygon fill="#ffffb3" stroke="#000000" points="1245.9734,-122 1104.0266,-122 1104.0266,-86 1245.9734,-86 1245.9734,-122"/>
<text text-anchor="middle" x="1175" y="-99.8" font-family="Times,serif" font-size="14.00" fill="#000000">DashboardComponent</text>
</g>
<!-- DashboardComponent&#45;&gt;AppModule -->
<g id="edge2" class="edge">
<title>DashboardComponent&#45;&gt;AppModule</title>
<path fill="none" stroke="#000000" d="M1175,-122.1289C1175,-142.5724 1175,-173 1175,-173 1175,-173 769.7672,-173 769.7672,-173"/>
<polygon fill="#000000" stroke="#000000" points="769.7672,-169.5001 759.7672,-173 769.7672,-176.5001 769.7672,-169.5001"/>
</g>
<!-- HeroesComponent -->
<g id="node3" class="node">
<title>HeroesComponent</title>
<polygon fill="#ffffb3" stroke="#000000" points="1086.4734,-122 965.5266,-122 965.5266,-86 1086.4734,-86 1086.4734,-122"/>
<text text-anchor="middle" x="1026" y="-99.8" font-family="Times,serif" font-size="14.00" fill="#000000">HeroesComponent</text>
</g>
<!-- HeroesComponent&#45;&gt;AppModule -->
<g id="edge3" class="edge">
<title>HeroesComponent&#45;&gt;AppModule</title>
<path fill="none" stroke="#000000" d="M1026,-122.2667C1026,-140.5552 1026,-166 1026,-166 1026,-166 769.8588,-166 769.8588,-166"/>
<polygon fill="#000000" stroke="#000000" points="769.8588,-162.5001 759.8588,-166 769.8588,-169.5001 769.8588,-162.5001"/>
</g>
<!-- HeroDetailComponent -->
<g id="node4" class="node">
<title>HeroDetailComponent</title>
<polygon fill="#ffffb3" stroke="#000000" points="947.5226,-122 804.4774,-122 804.4774,-86 947.5226,-86 947.5226,-122"/>
<text text-anchor="middle" x="876" y="-99.8" font-family="Times,serif" font-size="14.00" fill="#000000">HeroDetailComponent</text>
</g>
<!-- HeroDetailComponent&#45;&gt;AppModule -->
<g id="edge4" class="edge">
<title>HeroDetailComponent&#45;&gt;AppModule</title>
<path fill="none" stroke="#000000" d="M876,-122.0091C876,-138.0494 876,-159 876,-159 876,-159 769.9263,-159 769.9263,-159"/>
<polygon fill="#000000" stroke="#000000" points="769.9263,-155.5001 759.9263,-159 769.9262,-162.5001 769.9263,-155.5001"/>
</g>
<!-- MessagesComponent -->
<g id="node5" class="node">
<title>MessagesComponent</title>
<polygon fill="#ffffb3" stroke="#000000" points="785.7548,-122 650.2452,-122 650.2452,-86 785.7548,-86 785.7548,-122"/>
<text text-anchor="middle" x="718" y="-99.8" font-family="Times,serif" font-size="14.00" fill="#000000">MessagesComponent</text>
</g>
<!-- MessagesComponent&#45;&gt;AppModule -->
<g id="edge5" class="edge">
<title>MessagesComponent&#45;&gt;AppModule</title>
<path fill="none" stroke="#000000" d="M718,-122.1061C718,-122.1061 718,-140.991 718,-140.991"/>
<polygon fill="#000000" stroke="#000000" points="714.5001,-140.9909 718,-150.991 721.5001,-140.991 714.5001,-140.9909"/>
</g>
<!-- HeroSearchComponent -->
<g id="node6" class="node">
<title>HeroSearchComponent</title>
<polygon fill="#ffffb3" stroke="#000000" points="631.9017,-122 484.0983,-122 484.0983,-86 631.9017,-86 631.9017,-122"/>
<text text-anchor="middle" x="558" y="-99.8" font-family="Times,serif" font-size="14.00" fill="#000000">HeroSearchComponent</text>
</g>
<!-- HeroSearchComponent&#45;&gt;AppModule -->
<g id="edge6" class="edge">
<title>HeroSearchComponent&#45;&gt;AppModule</title>
<path fill="none" stroke="#000000" d="M558,-122.0091C558,-138.0494 558,-159 558,-159 558,-159 665.9619,-159 665.9619,-159"/>
<polygon fill="#000000" stroke="#000000" points="665.9619,-162.5001 675.9619,-159 665.9618,-155.5001 665.9619,-162.5001"/>
</g>
<!-- AppComponent  -->
<g id="node9" class="node">
<title>AppComponent </title>
<polygon fill="#80b1d3" stroke="#000000" points="772.439,-252 663.561,-252 663.561,-216 772.439,-216 772.439,-252"/>
<text text-anchor="middle" x="718" y="-229.8" font-family="Times,serif" font-size="14.00" fill="#000000">AppComponent </text>
</g>
<!-- AppModule&#45;&gt;AppComponent  -->
<g id="edge8" class="edge">
<title>AppModule&#45;&gt;AppComponent </title>
<path fill="none" stroke="#000000" stroke-dasharray="1,5" d="M718,-187.1061C718,-187.1061 718,-205.991 718,-205.991"/>
<polygon fill="#000000" stroke="#000000" points="714.5001,-205.9909 718,-215.991 721.5001,-205.991 714.5001,-205.9909"/>
</g>
<!-- AppRoutingModule -->
<g id="node8" class="node">
<title>AppRoutingModule</title>
<polygon fill="#8dd3c7" stroke="#000000" points="460.2744,-122 457.2744,-126 436.2744,-126 433.2744,-122 331.7256,-122 331.7256,-86 460.2744,-86 460.2744,-122"/>
<text text-anchor="middle" x="396" y="-99.8" font-family="Times,serif" font-size="14.00" fill="#000000">AppRoutingModule</text>
</g>
<!-- AppRoutingModule&#45;&gt;AppModule -->
<g id="edge7" class="edge">
<title>AppRoutingModule&#45;&gt;AppModule</title>
<path fill="none" stroke="#000000" d="M396,-122.2667C396,-140.5552 396,-166 396,-166 396,-166 666.2342,-166 666.2342,-166"/>
<polygon fill="#000000" stroke="#000000" points="666.2343,-169.5001 676.2342,-166 666.2342,-162.5001 666.2343,-169.5001"/>
</g>
<!-- HeroService -->
<g id="node10" class="node">
<title>HeroService</title>
<ellipse fill="#fdb462" stroke="#000000" cx="249" cy="-104" rx="59.0872" ry="18"/>
<text text-anchor="middle" x="249" y="-99.8" font-family="Times,serif" font-size="14.00" fill="#000000">HeroService</text>
</g>
<!-- HeroService&#45;&gt;AppModule -->
<g id="edge9" class="edge">
<title>HeroService&#45;&gt;AppModule</title>
<path fill="none" stroke="#000000" d="M249,-122.1289C249,-142.5724 249,-173 249,-173 249,-173 665.9666,-173 665.9666,-173"/>
<polygon fill="#000000" stroke="#000000" points="665.9667,-176.5001 675.9666,-173 665.9666,-169.5001 665.9667,-176.5001"/>
</g>
<!-- MessageService -->
<g id="node11" class="node">
<title>MessageService</title>
<ellipse fill="#fdb462" stroke="#000000" cx="98" cy="-104" rx="73.5522" ry="18"/>
<text text-anchor="middle" x="98" y="-99.8" font-family="Times,serif" font-size="14.00" fill="#000000">MessageService</text>
</g>
<!-- MessageService&#45;&gt;AppModule -->
<g id="edge10" class="edge">
<title>MessageService&#45;&gt;AppModule</title>
<path fill="none" stroke="#000000" d="M98,-122.0109C98,-144.4852 98,-180 98,-180 98,-180 665.8723,-180 665.8723,-180"/>
<polygon fill="#000000" stroke="#000000" points="665.8724,-183.5001 675.8723,-180 665.8723,-176.5001 665.8724,-183.5001"/>
</g>
</g>
</svg>
